<svg xmlns="http://www.w3.org/2000/svg" viewBox="0 0 512 512" role="img" aria-labelledby="title desc">
  <title id="title">RPG Save Editor</title>
  <desc id="desc">A violet fantasy crystal resting on a save disk, with golden RPG stat stars.</desc>
  <defs>
    <linearGradient id="night" x1="0" y1="0" x2="1" y2="1">
      <stop stop-color="#121629"/>
      <stop offset="1" stop-color="#292044"/>
    </linearGradient>
    <linearGradient id="gem" x1="0" y1="0" x2="1" y2="1">
      <stop stop-color="#a7f3e9"/>
      <stop offset=".48" stop-color="#8e83f5"/>
      <stop offset="1" stop-color="#d98bd8"/>
    </linearGradient>
    <linearGradient id="disk" x1="0" y1="0" x2="0" y2="1">
      <stop stop-color="#faf3dc"/>
      <stop offset="1" stop-color="#c6b9e9"/>
    </linearGradient>
  </defs>
  <rect x="20" y="20" width="472" height="472" rx="108" fill="url(#night)"/>
  <rect x="31" y="31" width="450" height="450" rx="97" fill="none" stroke="#9a89ce" stroke-opacity=".45" stroke-width="4"/>
  <path d="M113 154h286l30 30v214a24 24 0 0 1-24 24H107a24 24 0 0 1-24-24V184a30 30 0 0 1 30-30Z" fill="url(#disk)"/>
  <path d="M153 154h206v93a13 13 0 0 1-13 13H166a13 13 0 0 1-13-13Z" fill="#4f4b80"/>
  <path d="M181 154h138v73H181z" fill="#b5d7df"/>
  <path d="M163 316h186a22 22 0 0 1 22 22v84H141v-84a22 22 0 0 1 22-22Z" fill="#5b518b"/>
  <path d="M179 352h154v70H179z" fill="#bbb3dc"/>
  <path d="m256 71 67 95-18 83-49 41-49-41-18-83Z" fill="url(#gem)" stroke="#eee8ff" stroke-width="7" stroke-linejoin="round"/>
  <path d="m256 71-19 95 19 124 19-124Z" fill="#f0edff" fill-opacity=".48"/>
  <path d="m189 166 48 0 19-95 19 95h48" fill="none" stroke="#f5eaff" stroke-width="5" stroke-linejoin="round" opacity=".8"/>
  <path d="m118 94 7 17 17 7-17 7-7 17-7-17-17-7 17-7Zm267 3 5 12 12 5-12 5-5 12-5-12-12-5 12-5Zm-25 184 6 14 14 6-14 6-6 14-6-14-14-6 14-6Z" fill="#f7d989"/>
  <path d="M196 383h120" stroke="#f3e7ff" stroke-width="12" stroke-linecap="round"/>
</svg>
